<svg xmlns="http://www.w3.org/2000/svg" xmlns:xlink="http://www.w3.org/1999/xlink" width="610" height="305" viewBox="0 0 610 305">
  <defs>
    <clipPath id="clip-VRtualis_Logo_font_converted">
      <rect width="610" height="305"/>
    </clipPath>
  </defs>
  <g id="VRtualis_Logo_font_converted" data-name="VRtualis Logo font converted" clip-path="url(#clip-VRtualis_Logo_font_converted)">
    <g id="Group_2" data-name="Group 2" transform="translate(-82 -80)">
      <g id="Group_1" data-name="Group 1" transform="translate(-60 -70)">
        <g id="Polygon_1" data-name="Polygon 1" transform="translate(182 192)" fill="#3a4042">
          <path d="M 106.3843002319336 130 L 41.61569976806641 130 C 38.05688095092773 130 34.73957824707031 128.0860443115234 32.95835876464844 125.0050430297852 L 0.5833600163459778 69.00502014160156 C -1.201419949531555 65.91780090332031 -1.201419949531555 62.08218002319336 0.5833399891853333 58.99497985839844 L 32.95838165283203 2.994980096817017 C 34.73955917358398 -0.08603999763727188 38.05688095092773 -2 41.61571884155273 -2 L 106.3843002319336 -2 C 109.9431228637695 -2 113.2604217529297 -0.08603999763727188 115.0416412353516 2.994960069656372 L 147.4166259765625 58.99497985839844 C 149.2014617919922 62.08218002319336 149.2014617919922 65.91782379150391 147.4166259765625 69.00504302978516 L 115.0416564941406 125.0050430297852 C 113.2604217529297 128.0860595703125 109.9431228637695 130 106.3843002319336 130 Z" stroke="none"/>
          <path d="M 41.61569213867188 0 C 38.75923919677734 0 36.11949920654297 1.523025512695313 34.68982696533203 3.995979309082031 L 2.3148193359375 59.99597930908203 C 0.8826446533203125 62.47322082519531 0.8826446533203125 65.52676391601563 2.3148193359375 68.00402069091797 L 34.68982696533203 124.004020690918 C 36.11949920654297 126.4769592285156 38.75923919677734 128 41.61569213867188 128 L 106.3843078613281 128 C 109.2407608032227 128 111.880500793457 126.4769592285156 113.310173034668 124.004020690918 L 145.6851501464844 68.00402069091797 C 147.1173553466797 65.52676391601563 147.1173553466797 62.47323608398438 145.6851501464844 59.99597930908203 L 113.310173034668 3.995979309082031 C 111.880500793457 1.523025512695313 109.2407608032227 0 106.38427734375 0 L 41.61569213867188 0 M 41.61569213867188 -4 L 106.38427734375 -4 C 108.4865875244141 -4 110.5603256225586 -3.444671630859375 112.3812561035156 -2.394058227539063 C 114.2022171020508 -1.343429565429688 115.7209167480469 0.1739120483398438 116.7731094360352 1.993980407714844 L 149.1480865478516 57.99398040771484 C 151.2898864746094 61.6986083984375 151.2898864746094 66.3013916015625 149.1480712890625 70.00606536865234 L 116.7731094360352 126.0060195922852 C 115.7208862304688 127.8260650634766 114.2022171020508 129.3434143066406 112.3812866210938 130.39404296875 C 110.5603256225586 131.4446716308594 108.4866104125977 132 106.3843078613281 132 L 41.61569213867188 132 C 39.51338958740234 132 37.43967437744141 131.4446716308594 35.61872100830078 130.39404296875 C 33.79778289794922 129.3434143066406 32.27910614013672 127.8260650634766 31.22689056396484 126.0060424804688 L -1.148101806640625 70.00604248046875 C -3.289886474609375 66.30136871337891 -3.289886474609375 61.6986083984375 -1.148101806640625 57.99393463134766 L 31.22689056396484 1.99395751953125 C 32.27908325195313 0.1739349365234375 33.79776000976563 -1.343429565429688 35.61872100830078 -2.39404296875 C 37.43967437744141 -3.444671630859375 39.51338958740234 -4 41.61569213867188 -4 Z" stroke="none" fill="#212121"/>
        </g>
        <g id="Polygon_2" data-name="Polygon 2" transform="translate(182 285)" fill="#50717b">
          <path d="M 106.3843002319336 130 L 41.61569976806641 130 C 38.05688095092773 130 34.73957824707031 128.0860443115234 32.95835876464844 125.0050430297852 L 0.5833600163459778 69.00502014160156 C -1.201419949531555 65.91780090332031 -1.201419949531555 62.08218002319336 0.5833399891853333 58.99497985839844 L 32.95838165283203 2.994980096817017 C 34.73955917358398 -0.08603999763727188 38.05688095092773 -2 41.61571884155273 -2 L 106.3843002319336 -2 C 109.9431228637695 -2 113.2604217529297 -0.08603999763727188 115.0416412353516 2.994960069656372 L 147.4166259765625 58.99497985839844 C 149.2014617919922 62.08218002319336 149.2014617919922 65.91782379150391 147.4166259765625 69.00504302978516 L 115.0416564941406 125.0050430297852 C 113.2604217529297 128.0860595703125 109.9431228637695 130 106.3843002319336 130 Z" stroke="none"/>
          <path d="M 41.61569213867188 0 C 38.75923919677734 0 36.11949920654297 1.523025512695313 34.68982696533203 3.995979309082031 L 2.3148193359375 59.99597930908203 C 0.8826446533203125 62.47322082519531 0.8826446533203125 65.52676391601563 2.3148193359375 68.00402069091797 L 34.68982696533203 124.004020690918 C 36.11949920654297 126.4769592285156 38.75923919677734 128 41.61569213867188 128 L 106.3843078613281 128 C 109.2407608032227 128 111.880500793457 126.4769592285156 113.310173034668 124.004020690918 L 145.6851501464844 68.00402069091797 C 147.1173553466797 65.52676391601563 147.1173553466797 62.47323608398438 145.6851501464844 59.99597930908203 L 113.310173034668 3.995979309082031 C 111.880500793457 1.523025512695313 109.2407608032227 0 106.38427734375 0 L 41.61569213867188 0 M 41.61569213867188 -4 L 106.38427734375 -4 C 108.4865875244141 -4 110.5603256225586 -3.444671630859375 112.3812561035156 -2.394058227539063 C 114.2022171020508 -1.343429565429688 115.7209167480469 0.1739120483398438 116.7731094360352 1.993980407714844 L 149.1480865478516 57.99398040771484 C 151.2898864746094 61.6986083984375 151.2898864746094 66.3013916015625 149.1480712890625 70.00606536865234 L 116.7731094360352 126.0060195922852 C 115.7208862304688 127.8260650634766 114.2022171020508 129.3434143066406 112.3812866210938 130.39404296875 C 110.5603256225586 131.4446716308594 108.4866104125977 132 106.3843078613281 132 L 41.61569213867188 132 C 39.51338958740234 132 37.43967437744141 131.4446716308594 35.61872100830078 130.39404296875 C 33.79778289794922 129.3434143066406 32.27910614013672 127.8260650634766 31.22689056396484 126.0060424804688 L -1.148101806640625 70.00604248046875 C -3.289886474609375 66.30136871337891 -3.289886474609375 61.6986083984375 -1.148101806640625 57.99393463134766 L 31.22689056396484 1.99395751953125 C 32.27908325195313 0.1739349365234375 33.79776000976563 -1.343429565429688 35.61872100830078 -2.39404296875 C 37.43967437744141 -3.444671630859375 39.51338958740234 -4 41.61569213867188 -4 Z" stroke="none" fill="#3a4042"/>
        </g>
        <g id="Polygon_3" data-name="Polygon 3" transform="translate(257 240)" fill="#8ecccc">
          <path d="M 106.3843002319336 130 L 41.61569976806641 130 C 38.05688095092773 130 34.73957824707031 128.0860443115234 32.95835876464844 125.0050430297852 L 0.5833600163459778 69.00502014160156 C -1.201419949531555 65.91780090332031 -1.201419949531555 62.08218002319336 0.5833399891853333 58.99497985839844 L 32.95838165283203 2.994980096817017 C 34.73955917358398 -0.08603999763727188 38.05688095092773 -2 41.61571884155273 -2 L 106.3843002319336 -2 C 109.9431228637695 -2 113.2604217529297 -0.08603999763727188 115.0416412353516 2.994960069656372 L 147.4166259765625 58.99497985839844 C 149.2014617919922 62.08218002319336 149.2014617919922 65.91782379150391 147.4166259765625 69.00504302978516 L 115.0416564941406 125.0050430297852 C 113.2604217529297 128.0860595703125 109.9431228637695 130 106.3843002319336 130 Z" stroke="none"/>
          <path d="M 41.61569213867188 0 C 38.75923919677734 0 36.11949920654297 1.523025512695313 34.68982696533203 3.995979309082031 L 2.3148193359375 59.99597930908203 C 0.8826446533203125 62.47322082519531 0.8826446533203125 65.52676391601563 2.3148193359375 68.00402069091797 L 34.68982696533203 124.004020690918 C 36.11949920654297 126.4769592285156 38.75923919677734 128 41.61569213867188 128 L 106.3843078613281 128 C 109.2407608032227 128 111.880500793457 126.4769592285156 113.310173034668 124.004020690918 L 145.6851501464844 68.00402069091797 C 147.1173553466797 65.52676391601563 147.1173553466797 62.47323608398438 145.6851501464844 59.99597930908203 L 113.310173034668 3.995979309082031 C 111.880500793457 1.523025512695313 109.2407608032227 0 106.38427734375 0 L 41.61569213867188 0 M 41.61569213867188 -4 L 106.38427734375 -4 C 108.4865875244141 -4 110.5603256225586 -3.444671630859375 112.3812561035156 -2.394058227539063 C 114.2022171020508 -1.343429565429688 115.7209167480469 0.1739120483398438 116.7731094360352 1.993980407714844 L 149.1480865478516 57.99398040771484 C 151.2898864746094 61.6986083984375 151.2898864746094 66.3013916015625 149.1480712890625 70.00606536865234 L 116.7731094360352 126.0060195922852 C 115.7208862304688 127.8260650634766 114.2022171020508 129.3434143066406 112.3812866210938 130.39404296875 C 110.5603256225586 131.4446716308594 108.4866104125977 132 106.3843078613281 132 L 41.61569213867188 132 C 39.51338958740234 132 37.43967437744141 131.4446716308594 35.61872100830078 130.39404296875 C 33.79778289794922 129.3434143066406 32.27910614013672 127.8260650634766 31.22689056396484 126.0060424804688 L -1.148101806640625 70.00604248046875 C -3.289886474609375 66.30136871337891 -3.289886474609375 61.6986083984375 -1.148101806640625 57.99393463134766 L 31.22689056396484 1.99395751953125 C 32.27908325195313 0.1739349365234375 33.79776000976563 -1.343429565429688 35.61872100830078 -2.39404296875 C 37.43967437744141 -3.444671630859375 39.51338958740234 -4 41.61569213867188 -4 Z" stroke="none" fill="#50717b"/>
        </g>
      </g>
      <path id="Path_1" data-name="Path 1" d="M51.52-44.8,32.576,0H17.728L-1.216-44.8H15.04L25.728-18.624,36.672-44.8ZM88.576-11.264h-4.1V0h-15.1V-44.8H90.944a26.444,26.444,0,0,1,10.816,2.048,15.938,15.938,0,0,1,7.1,5.888,16.071,16.071,0,0,1,2.5,8.96,15.836,15.836,0,0,1-2.176,8.384,15.365,15.365,0,0,1-6.272,5.7L112.32,0H96.192ZM96.128-27.9a4.929,4.929,0,0,0-1.536-3.872,6.72,6.72,0,0,0-4.608-1.376h-5.5v10.5h5.5a6.72,6.72,0,0,0,4.608-1.376A4.929,4.929,0,0,0,96.128-27.9Zm50.048-13.952H130.048V-44.8h35.52v2.944H149.44V0h-3.264ZM206.656.32q-8.512,0-13.216-4.928t-4.7-14.4V-44.8H192v25.664q0,8.256,3.776,12.352t10.944,4.1q7.1,0,10.88-4.1t3.776-12.352V-44.8h3.264v25.792q0,9.472-4.736,14.4T206.656.32Zm76.352-12.928H257.024L251.328,0h-3.52l20.608-44.8h3.264L292.288,0h-3.52Zm-1.216-2.752L270.016-41.216,258.3-15.36ZM316.8-44.8h3.264V-2.944h25.792V0H316.8Zm53.824,0h3.264V0h-3.264ZM417.664.32a26.092,26.092,0,0,1-9.376-1.7,18.081,18.081,0,0,1-6.944-4.384l1.472-2.432a17.338,17.338,0,0,0,6.368,4.064A22.853,22.853,0,0,0,417.6-2.56q6.4,0,9.664-2.432a7.549,7.549,0,0,0,3.264-6.336,6.623,6.623,0,0,0-1.728-4.8,11.428,11.428,0,0,0-4.288-2.752,58.91,58.91,0,0,0-6.912-1.984,67.4,67.4,0,0,1-7.9-2.368,12.619,12.619,0,0,1-5.056-3.552,9.479,9.479,0,0,1-2.08-6.432,10.936,10.936,0,0,1,1.728-5.984,11.733,11.733,0,0,1,5.28-4.32,21.6,21.6,0,0,1,8.864-1.6,24.985,24.985,0,0,1,7.3,1.088,21.462,21.462,0,0,1,6.208,2.944l-1.216,2.624a20.735,20.735,0,0,0-5.92-2.816,22.288,22.288,0,0,0-6.368-.96q-6.208,0-9.408,2.5a7.828,7.828,0,0,0-3.2,6.464,6.623,6.623,0,0,0,1.728,4.8,11.428,11.428,0,0,0,4.288,2.752,65.092,65.092,0,0,0,6.976,2.048,65.386,65.386,0,0,1,7.872,2.368,12.947,12.947,0,0,1,5.024,3.488,9.134,9.134,0,0,1,2.08,6.3,10.637,10.637,0,0,1-1.76,5.952,11.973,11.973,0,0,1-5.408,4.288A22.291,22.291,0,0,1,417.664.32Z" transform="translate(218 256)" fill="#212121"/>
    </g>
  </g>
</svg>
