<svg xmlns="http://www.w3.org/2000/svg" xmlns:xlink="http://www.w3.org/1999/xlink" width="610" height="305" viewBox="0 0 610 305">
  <defs>
    <clipPath id="clip-VRtualis_Logo">
      <rect width="610" height="305"/>
    </clipPath>
  </defs>
  <g id="VRtualis_Logo" data-name="VRtualis Logo" clip-path="url(#clip-VRtualis_Logo)">
    <g id="Group_2" data-name="Group 2" transform="translate(-82 -80)">
      <g id="Group_1" data-name="Group 1" transform="translate(-60 -70)">
        <g id="Polygon_1" data-name="Polygon 1" transform="translate(182 192)" fill="#3a4042">
          <path d="M 106.3843002319336 130 L 41.61569976806641 130 C 38.05688095092773 130 34.73957824707031 128.0860443115234 32.95835876464844 125.0050430297852 L 0.5833600163459778 69.00502014160156 C -1.201419949531555 65.91780090332031 -1.201419949531555 62.08218002319336 0.5833399891853333 58.99497985839844 L 32.95838165283203 2.994980096817017 C 34.73955917358398 -0.08603999763727188 38.05688095092773 -2 41.61571884155273 -2 L 106.3843002319336 -2 C 109.9431228637695 -2 113.2604217529297 -0.08603999763727188 115.0416412353516 2.994960069656372 L 147.4166259765625 58.99497985839844 C 149.2014617919922 62.08218002319336 149.2014617919922 65.91782379150391 147.4166259765625 69.00504302978516 L 115.0416564941406 125.0050430297852 C 113.2604217529297 128.0860595703125 109.9431228637695 130 106.3843002319336 130 Z" stroke="none"/>
          <path d="M 41.61569213867188 0 C 38.75923919677734 0 36.11949920654297 1.523025512695313 34.68982696533203 3.995979309082031 L 2.3148193359375 59.99597930908203 C 0.8826446533203125 62.47322082519531 0.8826446533203125 65.52676391601563 2.3148193359375 68.00402069091797 L 34.68982696533203 124.004020690918 C 36.11949920654297 126.4769592285156 38.75923919677734 128 41.61569213867188 128 L 106.3843078613281 128 C 109.2407608032227 128 111.880500793457 126.4769592285156 113.310173034668 124.004020690918 L 145.6851501464844 68.00402069091797 C 147.1173553466797 65.52676391601563 147.1173553466797 62.47323608398438 145.6851501464844 59.99597930908203 L 113.310173034668 3.995979309082031 C 111.880500793457 1.523025512695313 109.2407608032227 0 106.38427734375 0 L 41.61569213867188 0 M 41.61569213867188 -4 L 106.38427734375 -4 C 108.4865875244141 -4 110.5603256225586 -3.444671630859375 112.3812561035156 -2.394058227539063 C 114.2022171020508 -1.343429565429688 115.7209167480469 0.1739120483398438 116.7731094360352 1.993980407714844 L 149.1480865478516 57.99398040771484 C 151.2898864746094 61.6986083984375 151.2898864746094 66.3013916015625 149.1480712890625 70.00606536865234 L 116.7731094360352 126.0060195922852 C 115.7208862304688 127.8260650634766 114.2022171020508 129.3434143066406 112.3812866210938 130.39404296875 C 110.5603256225586 131.4446716308594 108.4866104125977 132 106.3843078613281 132 L 41.61569213867188 132 C 39.51338958740234 132 37.43967437744141 131.4446716308594 35.61872100830078 130.39404296875 C 33.79778289794922 129.3434143066406 32.27910614013672 127.8260650634766 31.22689056396484 126.0060424804688 L -1.148101806640625 70.00604248046875 C -3.289886474609375 66.30136871337891 -3.289886474609375 61.6986083984375 -1.148101806640625 57.99393463134766 L 31.22689056396484 1.99395751953125 C 32.27908325195313 0.1739349365234375 33.79776000976563 -1.343429565429688 35.61872100830078 -2.39404296875 C 37.43967437744141 -3.444671630859375 39.51338958740234 -4 41.61569213867188 -4 Z" stroke="none" fill="#212121"/>
        </g>
        <g id="Polygon_2" data-name="Polygon 2" transform="translate(182 285)" fill="#50717b">
          <path d="M 106.3843002319336 130 L 41.61569976806641 130 C 38.05688095092773 130 34.73957824707031 128.0860443115234 32.95835876464844 125.0050430297852 L 0.5833600163459778 69.00502014160156 C -1.201419949531555 65.91780090332031 -1.201419949531555 62.08218002319336 0.5833399891853333 58.99497985839844 L 32.95838165283203 2.994980096817017 C 34.73955917358398 -0.08603999763727188 38.05688095092773 -2 41.61571884155273 -2 L 106.3843002319336 -2 C 109.9431228637695 -2 113.2604217529297 -0.08603999763727188 115.0416412353516 2.994960069656372 L 147.4166259765625 58.99497985839844 C 149.2014617919922 62.08218002319336 149.2014617919922 65.91782379150391 147.4166259765625 69.00504302978516 L 115.0416564941406 125.0050430297852 C 113.2604217529297 128.0860595703125 109.9431228637695 130 106.3843002319336 130 Z" stroke="none"/>
          <path d="M 41.61569213867188 0 C 38.75923919677734 0 36.11949920654297 1.523025512695313 34.68982696533203 3.995979309082031 L 2.3148193359375 59.99597930908203 C 0.8826446533203125 62.47322082519531 0.8826446533203125 65.52676391601563 2.3148193359375 68.00402069091797 L 34.68982696533203 124.004020690918 C 36.11949920654297 126.4769592285156 38.75923919677734 128 41.61569213867188 128 L 106.3843078613281 128 C 109.2407608032227 128 111.880500793457 126.4769592285156 113.310173034668 124.004020690918 L 145.6851501464844 68.00402069091797 C 147.1173553466797 65.52676391601563 147.1173553466797 62.47323608398438 145.6851501464844 59.99597930908203 L 113.310173034668 3.995979309082031 C 111.880500793457 1.523025512695313 109.2407608032227 0 106.38427734375 0 L 41.61569213867188 0 M 41.61569213867188 -4 L 106.38427734375 -4 C 108.4865875244141 -4 110.5603256225586 -3.444671630859375 112.3812561035156 -2.394058227539063 C 114.2022171020508 -1.343429565429688 115.7209167480469 0.1739120483398438 116.7731094360352 1.993980407714844 L 149.1480865478516 57.99398040771484 C 151.2898864746094 61.6986083984375 151.2898864746094 66.3013916015625 149.1480712890625 70.00606536865234 L 116.7731094360352 126.0060195922852 C 115.7208862304688 127.8260650634766 114.2022171020508 129.3434143066406 112.3812866210938 130.39404296875 C 110.5603256225586 131.4446716308594 108.4866104125977 132 106.3843078613281 132 L 41.61569213867188 132 C 39.51338958740234 132 37.43967437744141 131.4446716308594 35.61872100830078 130.39404296875 C 33.79778289794922 129.3434143066406 32.27910614013672 127.8260650634766 31.22689056396484 126.0060424804688 L -1.148101806640625 70.00604248046875 C -3.289886474609375 66.30136871337891 -3.289886474609375 61.6986083984375 -1.148101806640625 57.99393463134766 L 31.22689056396484 1.99395751953125 C 32.27908325195313 0.1739349365234375 33.79776000976563 -1.343429565429688 35.61872100830078 -2.39404296875 C 37.43967437744141 -3.444671630859375 39.51338958740234 -4 41.61569213867188 -4 Z" stroke="none" fill="#3a4042"/>
        </g>
        <g id="Polygon_3" data-name="Polygon 3" transform="translate(257 240)" fill="#8ecccc">
          <path d="M 106.3843002319336 130 L 41.61569976806641 130 C 38.05688095092773 130 34.73957824707031 128.0860443115234 32.95835876464844 125.0050430297852 L 0.5833600163459778 69.00502014160156 C -1.201419949531555 65.91780090332031 -1.201419949531555 62.08218002319336 0.5833399891853333 58.99497985839844 L 32.95838165283203 2.994980096817017 C 34.73955917358398 -0.08603999763727188 38.05688095092773 -2 41.61571884155273 -2 L 106.3843002319336 -2 C 109.9431228637695 -2 113.2604217529297 -0.08603999763727188 115.0416412353516 2.994960069656372 L 147.4166259765625 58.99497985839844 C 149.2014617919922 62.08218002319336 149.2014617919922 65.91782379150391 147.4166259765625 69.00504302978516 L 115.0416564941406 125.0050430297852 C 113.2604217529297 128.0860595703125 109.9431228637695 130 106.3843002319336 130 Z" stroke="none"/>
          <path d="M 41.61569213867188 0 C 38.75923919677734 0 36.11949920654297 1.523025512695313 34.68982696533203 3.995979309082031 L 2.3148193359375 59.99597930908203 C 0.8826446533203125 62.47322082519531 0.8826446533203125 65.52676391601563 2.3148193359375 68.00402069091797 L 34.68982696533203 124.004020690918 C 36.11949920654297 126.4769592285156 38.75923919677734 128 41.61569213867188 128 L 106.3843078613281 128 C 109.2407608032227 128 111.880500793457 126.4769592285156 113.310173034668 124.004020690918 L 145.6851501464844 68.00402069091797 C 147.1173553466797 65.52676391601563 147.1173553466797 62.47323608398438 145.6851501464844 59.99597930908203 L 113.310173034668 3.995979309082031 C 111.880500793457 1.523025512695313 109.2407608032227 0 106.38427734375 0 L 41.61569213867188 0 M 41.61569213867188 -4 L 106.38427734375 -4 C 108.4865875244141 -4 110.5603256225586 -3.444671630859375 112.3812561035156 -2.394058227539063 C 114.2022171020508 -1.343429565429688 115.7209167480469 0.1739120483398438 116.7731094360352 1.993980407714844 L 149.1480865478516 57.99398040771484 C 151.2898864746094 61.6986083984375 151.2898864746094 66.3013916015625 149.1480712890625 70.00606536865234 L 116.7731094360352 126.0060195922852 C 115.7208862304688 127.8260650634766 114.2022171020508 129.3434143066406 112.3812866210938 130.39404296875 C 110.5603256225586 131.4446716308594 108.4866104125977 132 106.3843078613281 132 L 41.61569213867188 132 C 39.51338958740234 132 37.43967437744141 131.4446716308594 35.61872100830078 130.39404296875 C 33.79778289794922 129.3434143066406 32.27910614013672 127.8260650634766 31.22689056396484 126.0060424804688 L -1.148101806640625 70.00604248046875 C -3.289886474609375 66.30136871337891 -3.289886474609375 61.6986083984375 -1.148101806640625 57.99393463134766 L 31.22689056396484 1.99395751953125 C 32.27908325195313 0.1739349365234375 33.79776000976563 -1.343429565429688 35.61872100830078 -2.39404296875 C 37.43967437744141 -3.444671630859375 39.51338958740234 -4 41.61569213867188 -4 Z" stroke="none" fill="#50717b"/>
        </g>
      </g>
      <text id="VRTUALIS" transform="translate(218 256)" fill="#212121" font-size="64" font-family="Montserrat-Black, Montserrat" font-weight="800" letter-spacing="0.256em"><tspan x="0" y="0">VR</tspan><tspan y="0" font-family="Montserrat-Light, Montserrat" font-weight="300">TUALIS</tspan></text>
    </g>
  </g>
</svg>
