<svg xmlns="http://www.w3.org/2000/svg" xmlns:xlink="http://www.w3.org/1999/xlink" width="256" height="256" viewBox="0 0 256 256">
  <defs>
    <clipPath id="clip-Friends_1">
      <rect width="256" height="256"/>
    </clipPath>
  </defs>
  <g id="Friends_1" data-name="Friends – 1" clip-path="url(#clip-Friends_1)">
    <g id="Group_20" data-name="Group 20">
      <g id="Group_18" data-name="Group 18" transform="translate(-27 18)">
        <path id="Path_14" data-name="Path 14" d="M45.083,0C89.59,0,90.167,45.083,90.167,45.083H0S.577,0,45.083,0Z" transform="translate(65.333 111.92)" fill="#50717b"/>
        <circle id="Ellipse_7" data-name="Ellipse 7" cx="20" cy="20" r="20" transform="translate(91 63)" fill="#50717b"/>
      </g>
      <g id="Group_19" data-name="Group 19" transform="translate(63 18)">
        <path id="Path_14-2" data-name="Path 14" d="M45.083,0C89.59,0,90.167,45.083,90.167,45.083H0S.577,0,45.083,0Z" transform="translate(65.333 111.92)" fill="#50717b"/>
        <circle id="Ellipse_7-2" data-name="Ellipse 7" cx="20" cy="20" r="20" transform="translate(91 63)" fill="#50717b"/>
      </g>
    </g>
    <g id="Group_17" data-name="Group 17">
      <path id="Path_14-3" data-name="Path 14" d="M62.667,0c61.865,0,62.667,62.667,62.667,62.667H0S.8,0,62.667,0Z" transform="translate(65.333 131)" fill="#8ecccc"/>
      <circle id="Ellipse_7-3" data-name="Ellipse 7" cx="27.5" cy="27.5" r="27.5" transform="translate(101 63)" fill="#8ecccc"/>
    </g>
  </g>
</svg>
